<svg xmlns="http://www.w3.org/2000/svg" width="208.849" height="56.647">
  <path d="M0 0h70v57H0z"/>
  <path d="M8.9 43.9c2.3 1.4 5.8 2.6 9.4 2.6 5.3 0 8.5-2.8 8.5-6.9 0-3.8-2.2-5.9-7.6-8-6.6-2.3-10.7-5.8-10.7-11.5 0-6.3 5.2-11 13.1-11 4.1 0 7.1 1 8.9 2l-1.4 4.3c-1.3-.7-4-1.9-7.7-1.9-5.5 0-7.6 3.3-7.6 6.1 0 3.8 2.5 5.6 8 7.8 6.8 2.6 10.3 5.9 10.3 11.9 0 6.2-4.6 11.6-14.2 11.6-3.9 0-8.2-1.1-10.3-2.6z" fill="#fff"/>
  <path d="M31.5 29.3L53.2 6.4h6.9l-17 17.9 17.5 25.9h-7.1L39.2 28.3l-4.5 4.8z" fill="#fff"/>
  <g stroke-miterlimit="10" stroke="#000" stroke-width=".5">
    <path d="M94.1 13.5h-7v1h7c4.4 0 7.6 1.3 9.8 4 1.9 2.4 2.8 5.8 2.8 10.4 0 4.3-1.2 7.8-3.5 10.4-2.4 2.7-5.7 4-10.1 4h-6v1h6c4.6 0 8.2-1.5 10.8-4.4 2.5-2.8 3.7-6.5 3.7-11 0-4.7-1-8.4-3.1-11-2.2-2.9-5.7-4.4-10.4-4.4zM84.4 43V13.5h-1v30.8h1v-1zm27.8-9.5v-1.4c.2-2.7 1-4.9 2.6-6.7 1.6-1.9 3.8-2.9 6.3-2.9 5.5 0 8.4 3.3 9 9.9v1.2h1.1c-.2-3.8-1-6.6-2.4-8.6-1.7-2.3-4.2-3.5-7.6-3.5-3.1 0-5.5 1.2-7.4 3.6-1.8 2.2-2.6 4.9-2.6 8.2 0 3.5.9 6.3 2.7 8.5 1.8 2.2 4.2 3.3 7.3 3.3 2.7 0 4.9-.8 6.6-2.4 1.4-1.3 2.4-3.1 2.9-5.4h-1.1c-.5 2-1.4 3.6-2.6 4.7-1.5 1.3-3.4 2-5.8 2-2.7 0-4.8-.9-6.4-2.8-1.6-1.8-2.4-4.3-2.5-7.3v-.4z"/>
    <path d="M114.9 32.5h12.5v1h-12.5zm34 1.5c-1-.6-3-1.3-5.9-2-2.3-.6-4-1.2-4.9-1.7-1.5-.9-2.2-1.9-2.2-3.3 0-1.3.6-2.3 1.9-3.2 1.3-.9 2.8-1.3 4.7-1.3 2.2 0 4 .5 5.3 1.6 1.1.9 1.8 2.3 2.1 4.1h1c-.7-4.5-3.5-6.7-8.4-6.7-2.1 0-3.8.5-5.3 1.5-1.6 1-2.3 2.4-2.3 4.1 0 1.7.8 3.1 2.5 4.1 1 .6 2.8 1.3 5.4 2 2.8.7 4.5 1.3 5.4 1.8 1.6.8 2.4 2 2.4 3.5 0 3.7-2.5 5.5-7.3 5.5-2.4 0-4.2-.5-5.4-1.4-1.4-1-2.2-2.7-2.4-5h-1.1c.5 5 3.5 7.5 8.9 7.5 5.6 0 8.4-2.2 8.4-6.6-.1-2-1-3.4-2.8-4.5zm9.1-19.3c-.4 0-.7.1-1 .4-.3.3-.4.6-.4 1s.1.7.4 1c.3.3.6.4 1 .4s.7-.2 1-.4c.3-.2.4-.6.4-1s-.2-.7-.4-1c-.3-.3-.6-.4-1-.4zm-.5 7.3h1v22.3h-1zm17.3 20.8c-2.8 0-5-1-6.7-3.1-1.5-1.9-2.2-4.3-2.2-7 0-2.8.7-5.2 2.2-7 1.6-2.1 3.8-3.1 6.7-3.1 2.5 0 4.6.9 6.2 2.6v-1.4c-1.6-1.5-3.7-2.2-6.2-2.2-3.2 0-5.7 1.2-7.5 3.5-1.6 2.1-2.5 4.7-2.5 7.7s.8 5.6 2.5 7.7c1.8 2.3 4.3 3.5 7.5 3.5 2.5 0 4.6-.7 6.2-2.2v-1.4c-1.6 1.5-3.7 2.4-6.2 2.4z"/>
    <path d="M183.7 27.7v15.1c-.1 6.4-3 9.7-8.6 9.7-2.5 0-4.4-.6-5.8-1.8-1.3-1-2-2.5-2.4-4.4h-1c.3 2.3 1.3 4.1 2.7 5.3 1.6 1.3 3.7 2 6.5 2 6.4 0 9.7-3.7 9.7-10.9V22h-1v5.7zm7.7-5.3V22h-1v22.3h1V30.8zm7.7-1c-1.7 0-3.2.4-4.6 1.3l-.3.3v1.3c1.4-1.3 3-1.9 5-1.9 4.7 0 7.2 2.7 7.2 8.2v13.7h1.1V30.6c-.2-6.1-2.9-9.2-8.4-9.2z"/>
  </g>
  <path fill="none" d="M0 0h208.849v56.647H0z"/>
</svg>
